<svg enable-background="new 0 0 100 100" height="100" viewBox="0 0 100 100" width="100" xmlns="http://www.w3.org/2000/svg"><path d="m83.333 10h-66.666c-3.666 0-6.667 3.001-6.667 6.667v53.333c0 3.665 3.001 6.667 6.667 6.667h30v6.666h-10c-3.682 0-6.667 2.982-6.667 6.667l40-.007c0-3.678-2.985-6.666-6.667-6.666h-10v-6.66h30c3.666 0 6.667-3.002 6.667-6.667v-53.333c0-3.666-3.001-6.667-6.667-6.667zm-46.178 41.465-3.535 3.535-9.311-9.31c-1.302-1.303-1.302-3.412 0-4.714l9.311-9.31 3.535 3.535-8.132 8.131zm12.074 6.868h-5.127l6.67-30h5.127zm26.461-12.643-9.31 9.31-3.535-3.535 8.132-8.132-8.132-8.131 3.535-3.535 9.311 9.31c1.301 1.295 1.301 3.411-.001 4.713z"/></svg>